<?xml version="1.0" encoding="UTF-8" standalone="no"?>
<!-- Created with Inkscape (http://www.inkscape.org/) -->

<svg
   xmlns:dc="http://purl.org/dc/elements/1.1/"
   xmlns:cc="http://creativecommons.org/ns#"
   xmlns:rdf="http://www.w3.org/1999/02/22-rdf-syntax-ns#"
   xmlns:svg="http://www.w3.org/2000/svg"
   xmlns="http://www.w3.org/2000/svg"
   xmlns:sodipodi="http://sodipodi.sourceforge.net/DTD/sodipodi-0.dtd"
   xmlns:inkscape="http://www.inkscape.org/namespaces/inkscape"
   width="65.769623mm"
   height="65.769623mm"
   viewBox="0 0 65.769623 65.769623"
   version="1.1"
   id="svg8"
   inkscape:version="0.92.4 (5da689c313, 2019-01-14)"
   sodipodi:docname="tutor.svg">
  <defs
     id="defs2">
    <clipPath
       clipPathUnits="userSpaceOnUse"
       id="clipPath7301">
      <path
         style="fill:#ffffff;fill-opacity:1;stroke:none;stroke-width:1.60871744;stroke-miterlimit:4;stroke-dasharray:none;stroke-opacity:1"
         d="m 26.458333,29.77087 c 13.229579,0 23.529755,6.425795 22.490289,22.490287 v 0.122476 c -5.963745,5.613678 -13.807667,8.799893 -21.996762,8.935135 l -0.493527,0.203097 z"
         id="path7303"
         inkscape:connector-curvature="0"
         sodipodi:nodetypes="cccccc" />
    </clipPath>
    <clipPath
       clipPathUnits="userSpaceOnUse"
       id="clipPath7305">
      <path
         style="fill:#ffffff;fill-opacity:1;stroke:none;stroke-width:1.60871744;stroke-miterlimit:4;stroke-dasharray:none;stroke-opacity:1"
         d="m 26.458333,34.77087 c 13.229579,0 23.529755,6.425795 22.490289,22.490287 v 0.122476 c -5.963745,5.613678 -13.807667,8.799893 -21.996762,8.935135 l -0.493527,0.203097 z"
         id="path7307"
         inkscape:connector-curvature="0"
         sodipodi:nodetypes="cccccc" />
    </clipPath>
    <clipPath
       clipPathUnits="userSpaceOnUse"
       id="clipPath7305-0">
      <path
         style="fill:#ffffff;fill-opacity:1;stroke:none;stroke-width:1.60871744;stroke-miterlimit:4;stroke-dasharray:none;stroke-opacity:1"
         d="m 26.458333,34.77087 c 13.229579,0 23.529755,6.425795 22.490289,22.490287 v 0.122476 c -5.963745,5.613678 -13.807667,8.799893 -21.996762,8.935135 l -0.493527,0.203097 z"
         id="path7307-0"
         inkscape:connector-curvature="0"
         sodipodi:nodetypes="cccccc" />
    </clipPath>
    <clipPath
       clipPathUnits="userSpaceOnUse"
       id="clipPath853">
      <path
         style="fill:#ffffff;fill-opacity:1;stroke:none;stroke-width:1.60871744;stroke-miterlimit:4;stroke-dasharray:none;stroke-opacity:1"
         d="m 26.458333,34.77087 c 13.229579,0 23.529755,6.425795 22.490289,22.490287 v 0.122476 c -5.963745,5.613678 -13.807667,8.799893 -21.996762,8.935135 l -0.493527,0.203097 z"
         id="path851"
         inkscape:connector-curvature="0"
         sodipodi:nodetypes="cccccc" />
    </clipPath>
  </defs>
  <sodipodi:namedview
     id="base"
     pagecolor="#ffffff"
     bordercolor="#666666"
     borderopacity="1.0"
     inkscape:pageopacity="0.0"
     inkscape:pageshadow="2"
     inkscape:zoom="2.8"
     inkscape:cx="60.684699"
     inkscape:cy="94.997058"
     inkscape:document-units="mm"
     inkscape:current-layer="layer1"
     showgrid="true"
     showguides="true"
     inkscape:guide-bbox="true"
     inkscape:snap-object-midpoints="true"
     inkscape:snap-grids="true"
     inkscape:window-width="2736"
     inkscape:window-height="1699"
     inkscape:window-x="-13"
     inkscape:window-y="-13"
     inkscape:window-maximized="1">
    <inkscape:grid
       type="xygrid"
       id="grid815"
       originx="6.426479"
       originy="-235.66733" />
    <sodipodi:guide
       position="32.884813,31.561855"
       orientation="0,1"
       id="guide817"
       inkscape:locked="false" />
    <sodipodi:guide
       position="32.884813,31.561855"
       orientation="1,0"
       id="guide819"
       inkscape:locked="false" />
    <sodipodi:guide
       position="109.78096,20.126887"
       orientation="0,1"
       id="guide988"
       inkscape:locked="false" />
  </sodipodi:namedview>
  <metadata
     id="metadata5">
    <rdf:RDF>
      <cc:Work
         rdf:about="">
        <dc:format>image/svg+xml</dc:format>
        <dc:type
           rdf:resource="http://purl.org/dc/dcmitype/StillImage" />
        <dc:title />
      </cc:Work>
    </rdf:RDF>
  </metadata>
  <g
     inkscape:label="Ebene 1"
     inkscape:groupmode="layer"
     id="layer1"
     transform="translate(6.4264786,4.4369376)">
    <circle
       style="fill:#4987aa;fill-opacity:1;stroke:none;stroke-width:1.60866666;stroke-miterlimit:4;stroke-dasharray:none;stroke-opacity:1"
       id="path845-6"
       cx="26.458332"
       cy="28.44787"
       r="32.88393" />
    <path
       style="fill:#ffffff;fill-opacity:1;stroke:none;stroke-width:0.26458332px;stroke-linecap:butt;stroke-linejoin:miter;stroke-opacity:1"
       d="m 26.458333,34.77087 c -10.974469,0 -20.111438,4.129096 -22.047751,15.190806 7.782568,10.510491 22.047902,9.647066 22.047902,9.647066 0,0 14.265547,0.863425 22.048115,-9.647066 C 46.570286,38.899966 37.4328,34.77087 26.458333,34.77087 Z"
       id="path826"
       inkscape:connector-curvature="0"
       sodipodi:nodetypes="scccs" />
    <path
       style="fill:none;stroke:#4987aa;stroke-width:1.58749998;stroke-linecap:round;stroke-linejoin:miter;stroke-miterlimit:4;stroke-dasharray:none;stroke-opacity:1"
       d="m 23.056209,38.914344 6.804247,-10e-7"
       id="path5804-2"
       inkscape:connector-curvature="0"
       sodipodi:nodetypes="cc" />
    <path
       id="path5838"
       style="fill:#4987aa;fill-opacity:1;stroke:#ffffff;stroke-width:1.58749998;stroke-miterlimit:4;stroke-dasharray:none;stroke-opacity:1"
       d="M 22.489583,32.654162 C 21.85048,25.42115 14.659527,26.299811 13.860509,14.133329 c 0,-6.2269558 5.047947,-11.2749028 11.274906,-11.2749028 h 2.645835 c 6.226959,0 11.274906,5.047947 11.274906,11.2749028 -0.799018,12.166482 -7.989971,11.287821 -8.629074,18.520833 -2.645832,-0.23748 -5.291665,-0.23748 -7.937499,0 z"
       inkscape:connector-curvature="0"
       sodipodi:nodetypes="ccccccc" />
    <path
       style="fill:none;stroke:#4987aa;stroke-width:1.58749998;stroke-linecap:round;stroke-linejoin:miter;stroke-miterlimit:4;stroke-dasharray:none;stroke-opacity:1"
       d="m 22.48919,36.622914 7.938285,-1e-6"
       id="path5804"
       inkscape:connector-curvature="0"
       sodipodi:nodetypes="cc" />
    <path
       style="fill:none;fill-opacity:1;stroke:#ffffff;stroke-width:1.58749998;stroke-linecap:butt;stroke-linejoin:round;stroke-miterlimit:4;stroke-dasharray:none;stroke-opacity:1"
       d="m 25.135417,32.124997 c -0.954636,-13.053236 -1.9824,-13.374767 -2.985455,-17.647916 2.720871,2.302082 5.631288,-1.1375 8.719668,-0.06682 -1.50083,1.302506 -2.392957,8.849713 -3.08838,17.714734"
       id="path5856"
       inkscape:connector-curvature="0"
       sodipodi:nodetypes="cccc" />
    <path
       style="fill:none;stroke:#4987aa;stroke-width:1.58749998;stroke-linecap:round;stroke-linejoin:miter;stroke-miterlimit:4;stroke-dasharray:none;stroke-opacity:1"
       d="m 23.373592,41.222504 6.169482,-0.03341"
       id="path5804-2-6"
       inkscape:connector-curvature="0"
       sodipodi:nodetypes="cc" />
    <path
       style="fill:#4987aa;fill-opacity:1;stroke:none;stroke-width:1.60871744;stroke-miterlimit:4;stroke-dasharray:none;stroke-opacity:1"
       d="M 26.458332,-4.4369376 A 32.88496,32.88496 0 0 0 -6.4264786,28.447872 32.88496,32.88496 0 0 0 26.458332,61.332684 32.88496,32.88496 0 0 0 59.343143,28.447872 32.88496,32.88496 0 0 0 26.458332,-4.4369376 Z m 0,2.079008 A 30.806026,30.806026 0 0 1 57.264133,28.447872 30.806026,30.806026 0 0 1 26.458332,59.254192 30.806026,30.806026 0 0 1 -4.3474706,28.447872 30.806026,30.806026 0 0 1 26.458332,-2.3579296 Z"
       id="circle933"
       inkscape:connector-curvature="0" />
    <path
       inkscape:connector-curvature="0"
       id="path7283"
       d="M 26.458332,-4.4369376 A 32.88496,32.88496 0 0 0 -6.4264786,28.447872 32.88496,32.88496 0 0 0 26.458332,61.332684 32.88496,32.88496 0 0 0 59.343143,28.447872 32.88496,32.88496 0 0 0 26.458332,-4.4369376 Z m 0,2.079008 A 30.806026,30.806026 0 0 1 57.264133,28.447872 30.806026,30.806026 0 0 1 26.458332,59.254192 30.806026,30.806026 0 0 1 -4.3474706,28.447872 30.806026,30.806026 0 0 1 26.458332,-2.3579296 Z"
       style="fill:#4987aa;fill-opacity:1;stroke:none;stroke-width:1.60871744;stroke-miterlimit:4;stroke-dasharray:none;stroke-opacity:1" />
    <path
       style="fill:#4987aa;fill-opacity:1;stroke:none;stroke-width:1.60871744;stroke-miterlimit:4;stroke-dasharray:none;stroke-opacity:1"
       d="M 26.458332,-4.4369376 A 32.88496,32.88496 0 0 0 -6.4264786,28.447872 32.88496,32.88496 0 0 0 26.458332,61.332684 32.88496,32.88496 0 0 0 59.343143,28.447872 32.88496,32.88496 0 0 0 26.458332,-4.4369376 Z m 0,2.079008 A 30.806026,30.806026 0 0 1 57.264133,28.447872 30.806026,30.806026 0 0 1 26.458332,59.254192 30.806026,30.806026 0 0 1 -4.3474706,28.447872 30.806026,30.806026 0 0 1 26.458332,-2.3579296 Z"
       id="path7285"
       inkscape:connector-curvature="0" />
  </g>
</svg>
